<svg xmlns="http://www.w3.org/2000/svg" viewBox="0 0 400 300" role="img" aria-label="Gandum ka Dalia (cracked wheat)">
  <defs>
    <linearGradient id="bg" x1="0" y1="0" x2="0" y2="1">
      <stop offset="0" stop-color="#fdf2e6"/><stop offset="1" stop-color="#e8caa2"/>
    </linearGradient>
    <linearGradient id="bag" x1="0" y1="0" x2="1" y2="1">
      <stop offset="0" stop-color="#f6e2c8"/><stop offset="1" stop-color="#cf9a54"/>
    </linearGradient>
  </defs>
  <rect width="400" height="300" fill="url(#bg)"/>
  <path d="M135 95 h130 l14 150 a12 12 0 0 1 -12 13 h-134 a12 12 0 0 1 -12 -13 z" fill="url(#bag)" stroke="#a9742f" stroke-width="3"/>
  <path d="M135 95 q65 -30 130 0" fill="none" stroke="#a9742f" stroke-width="3"/>
  <rect x="150" y="150" width="100" height="58" rx="8" fill="#fdf8ef" stroke="#a9742f" stroke-width="2"/>
  <text x="200" y="184" text-anchor="middle" font-family="Segoe UI, Arial, sans-serif" font-size="17" font-weight="800" fill="#7a4520">GANDUM</text>
  <text x="200" y="202" text-anchor="middle" font-family="Segoe UI, Arial, sans-serif" font-size="13" fill="#a9742f">ka dalia</text>
  <g fill="#c98d47" stroke="#a9742f" stroke-width="1.5">
    <rect x="300" y="120" width="16" height="11" rx="3"/>
    <rect x="326" y="134" width="16" height="11" rx="3"/>
    <rect x="302" y="152" width="16" height="11" rx="3"/>
    <rect x="328" y="168" width="16" height="11" rx="3"/>
  </g>
</svg>
